<svg width="12" height="21" viewBox="0 0 12 21" fill="none" xmlns="http://www.w3.org/2000/svg">
<path fill-rule="evenodd" clip-rule="evenodd" d="M1.21783 5.81786C0.915797 6.08243 0.453306 6.05562 0.18483 5.75798C-0.0719738 5.47327 -0.0582476 5.0439 0.207759 4.77556L0.245594 4.73999L5.4007 0.224308C5.74212 -0.0747685 6.25788 -0.0747685 6.5993 0.224308L11.7544 4.73999C12.0564 5.00457 12.0836 5.46033 11.8152 5.75798C11.5584 6.04268 11.1241 6.07959 10.8224 5.85072L10.7822 5.81786L6.19977 1.80387C6.08596 1.70418 5.91404 1.70418 5.80023 1.80387L1.21783 5.81786Z" fill="#232D53"/>
<path fill-rule="evenodd" clip-rule="evenodd" d="M10.7822 15.1821C11.0842 14.9176 11.5467 14.9444 11.8152 15.242C12.072 15.5267 12.0582 15.9561 11.7922 16.2244L11.7544 16.26L6.5993 20.7757C6.25788 21.0748 5.74212 21.0748 5.4007 20.7757L0.245595 16.26C-0.056441 15.9954 -0.0836463 15.5397 0.18483 15.242C0.441633 14.9573 0.875948 14.9204 1.17756 15.1493L1.21783 15.1821L5.80023 19.1961C5.91404 19.2958 6.08596 19.2958 6.19977 19.1961L10.7822 15.1821Z" fill="#232D53"/>
</svg>
