<?xml version="1.0" encoding="utf-8"?>
<!-- Generator: Adobe Illustrator 25.0.1, SVG Export Plug-In . SVG Version: 6.00 Build 0)  -->
<svg version="1.1" id="Layer_1" xmlns="http://www.w3.org/2000/svg" xmlns:xlink="http://www.w3.org/1999/xlink" x="0px" y="0px"
	 viewBox="0 0 946.98 246.03" style="enable-background:new 0 0 946.98 246.03;" xml:space="preserve">
<style type="text/css">
	.st0{fill:#3C57C0;}
	.st1{fill:#16181D;}
	.st2{fill:#F4850C;}
</style>
<g>
	<g>
		<path class="st0" d="M212.18,102.44c-11.24-11.23-26.01-16.85-44.31-16.85c-9.07,0-17.36,1.59-24.88,4.76s-13.73,7.84-18.62,14
			c-4.89-6.16-11.1-10.83-18.62-14s-15.81-4.76-24.87-4.76c-18.31,0-33.08,5.62-44.32,16.85c-11.23,11.24-16.85,27.82-16.85,49.75
			v71.5h35.34v-71.5c0-10.87,2.13-18.93,6.39-24.19c4.25-5.26,10.74-7.89,19.44-7.89c8.87,0,15.4,2.63,19.57,7.89
			c4.17,5.26,6.25,13.32,6.25,24.19v71.5h35.34v-71.5c0-10.87,2.13-18.93,6.39-24.19s10.74-7.89,19.44-7.89
			c8.88,0,15.4,2.63,19.57,7.89c4.17,5.26,6.25,13.32,6.25,24.19v71.5h35.34v-71.5C229.03,130.26,223.41,113.68,212.18,102.44z"/>
		<path class="st1" d="M383.99,152.73c-0.37-13.77-4.04-25.73-11.01-35.88c-6.98-10.15-15.82-17.89-26.51-23.24
			c-10.7-5.35-21.84-8.02-33.44-8.02c-12.69,0-24.33,3.22-34.93,9.65s-18.94,15.04-25.01,25.82c-6.08,10.79-9.11,22.43-9.11,34.94
			c0,12.69,3.13,24.37,9.38,35.07c6.25,10.69,14.72,19.16,25.42,25.41c10.69,6.26,22.47,9.38,35.34,9.38c14.14,0,27-3.89,38.6-11.69
			c11.6-7.79,20.21-17.94,25.83-30.44l-42.14-0.28c-2.9,2.36-6.12,4.26-9.65,5.71c-3.53,1.46-8.11,2.18-13.73,2.18
			c-7.97,0-14.72-1.95-20.25-5.85c-5.53-3.89-9.11-9.19-10.74-15.9H382.9C383.8,164.15,384.16,158.54,383.99,152.73z M282.04,141.32
			c2.9-6.53,7.07-11.69,12.51-15.5c5.43-3.8,11.96-5.71,19.57-5.71c6.88,0,13.27,1.95,19.17,5.85c5.88,3.9,10.19,9.02,12.91,15.36
			L282.04,141.32L282.04,141.32z"/>
		<path class="st1" d="M501.96,33.39v62.53c-9.6-6.89-21.02-10.33-34.25-10.33c-12.69,0-24.38,3.12-35.07,9.38
			c-10.69,6.25-19.21,14.77-25.55,25.55c-6.35,10.79-9.52,22.52-9.52,35.21c0,12.68,3.17,24.42,9.52,35.2
			c6.34,10.78,14.86,19.3,25.55,25.55c10.69,6.26,22.38,9.38,35.07,9.38s24.37-3.12,35.07-9.38c10.69-6.25,19.17-14.77,25.42-25.55
			s9.38-22.52,9.38-35.2V33.39H501.96z M492.45,181.14c-6.71,6.8-15.04,10.2-25.01,10.2c-9.97,0-18.21-3.4-24.74-10.2
			c-6.52-6.79-9.79-15.26-9.79-25.41s3.27-18.63,9.79-25.42c6.53-6.8,14.77-10.2,24.74-10.2s18.3,3.4,25.01,10.2
			c6.7,6.79,10.06,15.27,10.06,25.42S499.15,174.35,492.45,181.14z"/>
		<path class="st0" d="M595.34,37.33c-4.08-4.07-9.02-6.11-14.82-6.11c-5.98,0-11.01,2.04-15.08,6.11
			c-4.08,4.08-6.12,9.02-6.12,14.82c0,5.98,2.04,11.01,6.12,15.09c4.07,4.08,9.1,6.11,15.08,6.11c5.8,0,10.74-2.03,14.82-6.11
			s6.12-9.11,6.12-15.09C601.46,46.35,599.42,41.41,595.34,37.33z M562.85,87.76v135.93h35.34V87.76H562.85z"/>
		<path class="st0" d="M697.14,139.96l27.27-27.55l-1.15-3.4c-7.94-1.64-19.78-4.83-18.71-21.25h-0.88l-45.13,44.86V33.39H623.2
			v190.3h35.34v-46.76l14.68-14.68l44.86,61.44h39.42L697.14,139.96z"/>
		<path class="st0" d="M878.87,120.52c-6.25-10.78-14.77-19.3-25.55-25.55c-0.43-0.25-0.86-0.5-1.3-0.73c-4.64,0-9.4,0-14.7,0.01
			c-3.83,0.01-9.87,0.02-17.45,0.05l-9.53,26.64c2.55-0.56,5.23-0.83,8.05-0.83c9.96,0,18.21,3.4,24.74,10.2
			c6.52,6.79,9.78,15.27,9.78,25.42s-3.26,18.62-9.78,25.41c-6.53,6.8-14.78,10.2-24.74,10.2c-9.97,0-18.31-3.4-25.01-10.2
			c-6.71-6.79-10.06-15.26-10.06-25.41c0-6.12,1.22-11.64,3.67-16.54l-13.26-37.9c-6.56,5.31-12.02,11.72-16.37,19.23
			c-6.26,10.79-9.38,22.52-9.38,35.21c0,12.68,3.12,24.42,9.38,35.2c6.25,10.78,14.77,19.3,25.55,25.55
			c10.78,6.26,22.52,9.38,35.21,9.38c12.68,0,24.42-3.12,35.2-9.38c10.78-6.25,19.3-14.77,25.55-25.55
			c6.26-10.78,9.38-22.52,9.38-35.2C888.25,143.04,885.13,131.31,878.87,120.52z"/>
	</g>
	<path class="st2" d="M837.3,88.25c23.02-0.04,35.92-0.01,72.21,0c2.51,0,15.32,0,17.76,0c-4.98-4.77-9.73-7.67-13.39-9.48
		c-10.78-5.35-24.39-5.48-51.17-5.42c-25.51,0.05-27.7,0.24-34.6,0.15c-4.65-0.07-9.29,0.07-13.93-0.2
		c-6.59-0.38-10.08,2.45-11.85,8.63c-1.69,5.94-3.99,11.71-6.03,17.56c-11.71-26.65-19.25-53.63-30.14-79.31l-2.69,0.34
		c-7.76,22.19-15.53,44.39-23.55,67.33h-29.38c-1.03,13.45,8.61,14.13,17.29,16c3.15,9.34,6.24,18.47,9.32,27.61
		c0.45,1.37,0.9,2.74,1.34,4.11c0.42-1.31,0.84-2.63,1.26-3.94c8.15-23.4,16.29-46.8,24.44-70.2l1.89-0.1
		c9.38,26.81,18.76,53.62,28.15,80.43c0.39,0.83,0.78,1.66,1.17,2.5c0.39-0.88,0.79-1.75,1.18-2.63
		c6.35-17.76,12.7-35.52,19.05-53.27C825.19,88.27,832.79,88.26,837.3,88.25z"/>
</g>
</svg>
