<svg width="130" height="30" viewBox="0 0 130 30" fill="none" xmlns="http://www.w3.org/2000/svg">
<g clip-path="url(#clip0_98_182)">
<path d="M27.5693 11.9236C25.9593 10.2962 23.8437 9.48181 21.2224 9.48181C19.9232 9.48181 18.7358 9.71223 17.6586 10.1716C16.5814 10.631 15.6919 11.3077 14.9915 12.2004C14.291 11.3077 13.4015 10.631 12.3243 10.1716C11.2472 9.71223 10.0597 9.48181 8.76197 9.48181C6.13925 9.48181 4.0236 10.2962 2.41359 11.9236C0.805007 13.5525 0 15.9551 0 19.1331V29.4945H5.06209V19.1331C5.06209 17.5579 5.36719 16.3899 5.97739 15.6276C6.58616 14.8654 7.51579 14.4843 8.76197 14.4843C10.0325 14.4843 10.9679 14.8654 11.5652 15.6276C12.1625 16.3899 12.4604 17.5579 12.4604 19.1331V29.4945H17.5225V19.1331C17.5225 17.5579 17.8276 16.3899 18.4378 15.6276C19.048 14.8654 19.9762 14.4843 21.2224 14.4843C22.4944 14.4843 23.4283 14.8654 24.0256 15.6276C24.6229 16.3899 24.9208 17.5579 24.9208 19.1331V29.4945H29.9829V19.1331C29.9829 15.9551 29.1779 13.5525 27.5693 11.9236Z" fill="white"/>
<path d="M52.1794 19.2114C52.1264 17.2159 51.6007 15.4827 50.6023 14.0118C49.6025 12.541 48.3363 11.4193 46.805 10.644C45.2724 9.86873 43.6767 9.48181 42.0151 9.48181C40.1974 9.48181 38.5301 9.94844 37.0117 10.8802C35.4934 11.812 34.2988 13.0598 33.4293 14.6219C32.5584 16.1856 32.1244 17.8724 32.1244 19.6853C32.1244 21.5242 32.5727 23.2168 33.468 24.7674C34.3632 26.3165 35.5765 27.544 37.1091 28.4497C38.6404 29.3569 40.3277 29.809 42.1712 29.809C44.1966 29.809 46.0387 29.2453 47.7003 28.1149C49.3618 26.986 50.5951 25.5152 51.4001 23.7037L45.364 23.6632C44.9486 24.0052 44.4874 24.2805 43.9818 24.4906C43.4761 24.7022 42.8201 24.8065 42.0151 24.8065C40.8735 24.8065 39.9066 24.5239 39.1145 23.9588C38.3224 23.3951 37.8096 22.627 37.5761 21.6546H52.0232C52.1522 20.8663 52.2037 20.0533 52.1794 19.2114ZM37.5761 17.5579C37.9915 16.6116 38.5888 15.8639 39.368 15.3117C40.1458 14.7611 41.0812 14.4843 42.1712 14.4843C43.1567 14.4843 44.072 14.7668 44.9171 15.332C45.7594 15.8972 46.3767 16.6391 46.7663 17.5579H37.5761Z" fill="white"/>
<path d="M69.0773 1.91724V10.9787C67.7022 9.98028 66.0664 9.48178 64.1714 9.48178C62.3536 9.48178 60.6792 9.93391 59.1479 10.8411C57.6167 11.7468 56.3963 12.9815 55.4882 14.5436C54.5786 16.1073 54.1245 17.8071 54.1245 19.6461C54.1245 21.4836 54.5786 23.1849 55.4882 24.7471C56.3963 26.3093 57.6167 27.5439 59.1479 28.4496C60.6792 29.3568 62.3536 29.8089 64.1714 29.8089C65.9891 29.8089 67.6621 29.3568 69.1948 28.4496C70.726 27.5439 71.9407 26.3093 72.8359 24.7471C73.7312 23.1849 74.1795 21.4836 74.1795 19.6461V1.91724H69.0773ZM67.7151 23.3284C66.754 24.3138 65.5608 24.8065 64.1327 24.8065C62.7046 24.8065 61.5243 24.3138 60.5889 23.3284C59.655 22.3444 59.1866 21.117 59.1866 19.6461C59.1866 18.1752 59.655 16.9463 60.5889 15.9624C61.5243 14.9769 62.7046 14.4842 64.1327 14.4842C65.5608 14.4842 66.754 14.9769 67.7151 15.9624C68.6748 16.9463 69.1561 18.1752 69.1561 19.6461C69.1561 21.117 68.6748 22.3444 67.7151 23.3284Z" fill="white"/>
<path d="M82.453 2.48821C81.8685 1.89841 81.1609 1.60278 80.3301 1.60278C79.4736 1.60278 78.7531 1.89841 78.1701 2.48821C77.5857 3.07946 77.2935 3.79534 77.2935 4.63585C77.2935 5.50243 77.5857 6.23135 78.1701 6.82261C78.7531 7.41386 79.4736 7.70803 80.3301 7.70803C81.1609 7.70803 81.8685 7.41386 82.453 6.82261C83.0374 6.23135 83.3296 5.50243 83.3296 4.63585C83.3296 3.79534 83.0374 3.07946 82.453 2.48821ZM77.7991 9.79625V29.4945H82.8612V9.79625H77.7991Z" fill="white"/>
<path d="M97.0347 17.3608L100.941 13.3684L100.776 12.8757C99.6388 12.638 97.9429 12.1757 98.0961 9.79624H97.9701L91.5057 16.2971V1.91724H86.4436V29.4945H91.5057V22.7183L93.6085 20.5909L100.034 29.4945H105.681L97.0347 17.3608Z" fill="white"/>
<path d="M123.066 14.5437C122.171 12.9815 120.95 11.7469 119.406 10.8411C119.344 10.8049 119.283 10.7687 119.22 10.7354C118.555 10.7354 117.873 10.7354 117.114 10.7368C116.566 10.7382 115.7 10.7397 114.615 10.744L113.25 14.6046C113.615 14.5234 113.999 14.4843 114.403 14.4843C115.829 14.4843 117.011 14.977 117.946 15.9624C118.88 16.9464 119.347 18.1753 119.347 19.6461C119.347 21.117 118.88 22.3445 117.946 23.3284C117.011 24.3138 115.829 24.8066 114.403 24.8066C112.975 24.8066 111.78 24.3138 110.82 23.3284C109.859 22.3445 109.379 21.117 109.379 19.6461C109.379 18.7593 109.554 17.9593 109.905 17.2493L108.006 11.757C107.066 12.5265 106.284 13.4554 105.661 14.5437C104.764 16.1073 104.317 17.8072 104.317 19.6461C104.317 21.4837 104.764 23.185 105.661 24.7471C106.556 26.3093 107.776 27.544 109.32 28.4497C110.865 29.3569 112.546 29.809 114.364 29.809C116.18 29.809 117.862 29.3569 119.406 28.4497C120.95 27.544 122.171 26.3093 123.066 24.7471C123.962 23.185 124.409 21.4837 124.409 19.6461C124.409 17.8072 123.962 16.1073 123.066 14.5437Z" fill="white"/>
<path d="M117.113 9.86723C120.41 9.86144 122.258 9.86578 127.456 9.86723C127.816 9.86723 129.651 9.86723 130 9.86723C129.287 9.17599 128.606 8.75574 128.082 8.49344C126.538 7.71815 124.588 7.69931 120.752 7.70801C117.098 7.71525 116.785 7.74279 115.796 7.72974C115.13 7.7196 114.466 7.73989 113.801 7.70076C112.857 7.64569 112.357 8.0558 112.104 8.95137C111.862 9.81217 111.532 10.6483 111.24 11.4961C109.563 7.6312 108.483 3.72141 106.923 0L106.537 0.049271C105.426 3.26493 104.313 6.48203 103.164 9.80637H98.9557C98.8082 11.7555 100.189 11.854 101.431 12.125C101.882 13.4785 102.325 14.8016 102.766 16.1261C102.83 16.3246 102.895 16.5232 102.958 16.7217C103.018 16.5319 103.078 16.3406 103.138 16.1507C104.306 12.7597 105.472 9.36873 106.639 5.97773L106.91 5.96323C108.253 9.84839 109.597 13.7336 110.942 17.6187C110.998 17.739 111.054 17.8593 111.11 17.981C111.165 17.8535 111.223 17.7274 111.279 17.5999C112.188 15.0262 113.098 12.4525 114.007 9.88028C115.377 9.87013 116.465 9.86868 117.113 9.86723Z" fill="#F4850C"/>
</g>
<defs>
<clipPath id="clip0_98_182">
<rect width="130" height="29.8089" fill="white"/>
</clipPath>
</defs>
</svg>
